<svg width="355" height="137" viewBox="0 0 355 137" fill="none" xmlns="http://www.w3.org/2000/svg">
<path d="M134.674 18.6637C134.674 22.9477 133.068 27.2316 129.678 30.6231L28.862 131.475C22.2598 138.08 11.5537 138.08 4.95159 131.475C-1.65053 124.871 -1.65053 114.161 4.95159 107.556L105.768 6.7042C112.37 0.099705 123.076 0.0997069 129.678 6.7042C133.068 9.91719 134.674 14.2012 134.674 18.6637Z" fill="#E4105D"/>
<path d="M134.674 119.516C134.674 123.8 133.068 128.084 129.678 131.475C123.076 138.08 112.37 138.08 105.768 131.475L4.9516 30.6231C-1.65052 24.0186 -1.65052 13.3087 4.9516 6.70418C11.5537 0.0996877 22.2599 0.0996895 28.862 6.70418L129.678 107.556C133.068 110.948 134.674 115.232 134.674 119.516Z" fill="#E4105D"/>
<path d="M312.016 134.724C307.734 134.724 303.451 133.117 300.061 129.726C293.459 123.121 293.459 112.411 300.061 105.807L350.558 55.2913C357.16 48.6868 367.867 48.6868 374.469 55.2913C381.071 61.8958 381.071 72.6058 374.469 79.2103L323.971 129.726C320.581 133.117 316.299 134.724 312.016 134.724Z" fill="#E4105D"/>
<path d="M362.513 84.3853C358.231 84.3853 353.949 82.7788 350.558 79.3873L300.061 28.8719C293.459 22.2674 293.459 11.5574 300.061 4.95293C306.663 -1.65156 317.369 -1.65155 323.971 4.95293L374.469 55.4684C381.071 62.0729 381.071 72.7828 374.469 79.3873C371.078 82.6003 366.796 84.3853 362.513 84.3853Z" fill="#E4105D"/>
<path d="M182.293 84.3853C178.011 84.3853 173.729 82.7788 170.338 79.3873C163.736 72.7828 163.736 62.0728 170.338 55.4684L220.836 4.95294C227.438 -1.65155 238.144 -1.65155 244.746 4.95294C251.348 11.5574 251.348 22.2675 244.746 28.8719L194.249 79.3873C191.037 82.6003 186.576 84.3853 182.293 84.3853Z" fill="#E4105D"/>
<path d="M232.791 134.724C228.508 134.724 224.226 133.117 220.836 129.726L170.338 79.2102C163.736 72.6058 163.736 61.8958 170.338 55.2913C176.94 48.6868 187.647 48.6868 194.249 55.2913L244.746 105.807C251.348 112.411 251.348 123.121 244.746 129.726C241.356 133.117 237.073 134.724 232.791 134.724Z" fill="#E4105D"/>
</svg>
